# xmcd
#
# Track frame offsets:
# 150
# 18810
# 39082
# 61987
# 81233
# 98018
# 127553
# 143933
# 162724
# 179599
# 197472
# 225732
# 248253
#
# Disc length: 3679 seconds
#
#
# Revision: 0
# Processed by: cddbd v1.5.2PL0 Copyright (c) Steve Scherf et al.
# Submitted via: FreeRIP 2.944 
#
DISCID=970e5d0d
DTITLE=Jimmy Thackery - The Essential Jimmy Thackery
DYEAR=2006
DGENRE=Blues
TTITLE0=Mercury Blues
TTITLE1=Trouble Man
TTITLE2=Detroit Iron
TTITLE3=Sinner Street
TTITLE4=Cool Guitars
TTITLE5=It's My Own Fault
TTITLE6=Empty Arms Motel
TTITLE7=Drive to Survive
TTITLE8=Jump for Jerry
TTITLE9=Dancing on Broken Glass
TTITLE10=I'll Come Running Back
TTITLE11=Wild Night Out
TTITLE12=Jimmy's Detroit Boogie
EXTD=
EXTT0=
EXTT1=
EXTT2=
EXTT3=
EXTT4=
EXTT5=
EXTT6=
EXTT7=
EXTT8=
EXTT9=
EXTT10=
EXTT11=
EXTT12=
PLAYORDER=
